<svg width="64" height="64" viewBox="0 0 64 64" fill="none" xmlns="http://www.w3.org/2000/svg">
  <rect width="64" height="64" rx="12" fill="#1B4F72"/>
  <path d="M5 44 L5 37 Q5 35 7 35 L57 35 Q59 35 59 37 L59 44 Q59 46 57 46 L7 46 Q5 46 5 44 Z" fill="#2980B9"/>
  <path d="M14 35 Q18 22 24 20 L42 20 Q48 22 52 35 Z" fill="#2980B9"/>
  <path d="M39 35 Q42 24 46 21 L50 22 Q52 25 51 35 Z" fill="#AED6F1" opacity="0.85"/>
  <path d="M24 35 Q23 25 24 21 L30 20 L31 35 Z" fill="#AED6F1" opacity="0.85"/>
  <path d="M31 35 L32 20 L39 20 L39 35 Z" fill="#AED6F1" opacity="0.85"/>
  <circle cx="15" cy="48" r="7" fill="#111"/>
  <circle cx="15" cy="48" r="4" fill="#444"/>
  <circle cx="49" cy="48" r="7" fill="#111"/>
  <circle cx="49" cy="48" r="4" fill="#444"/>
  <ellipse cx="57" cy="39" rx="3" ry="2" fill="#FFF3B0" opacity="0.9"/>
  <rect x="5" y="36" width="3" height="5" rx="1" fill="#E74C3C" opacity="0.85"/>
  <text x="21" y="43" font-size="10" fill="#F0B429" font-weight="bold" font-family="system-ui, sans-serif">€?</text>
</svg>
